<?xml version="1.0" encoding="UTF-8"?>
<svg id="Layer_1" data-name="Layer 1" xmlns="http://www.w3.org/2000/svg" xmlns:xlink="http://www.w3.org/1999/xlink" viewBox="0 0 809.5 889.89">
  <defs>
    <style>
      .cls-1 {
        fill: url(#Jewel_Gradient);
      }
    </style>
    <linearGradient id="Jewel_Gradient" data-name="Jewel Gradient" x1="341.12" y1="259.1" x2="599.79" y2="707.13" gradientUnits="userSpaceOnUse">
      <stop offset="0" stop-color="#a5a0ce"/>
      <stop offset=".15" stop-color="#8698c7"/>
      <stop offset=".32" stop-color="#84bfe3"/>
      <stop offset=".49" stop-color="#c3de9a"/>
      <stop offset=".66" stop-color="#efee98"/>
      <stop offset=".82" stop-color="#fdcc8a"/>
      <stop offset="1" stop-color="#eb9a7b"/>
    </linearGradient>
  </defs>
  <path class="cls-1" d="m536.57,146.26l-126.67,73.13v146.27l126.67,73.13,126.67-73.13v-146.27l-126.67-73.13Zm92.62,199.74l-92.62,53.47-92.62-53.47v-106.95l92.62-53.47,92.62,53.47v106.95Zm-92.62,105.09l-126.67,73.13v146.27l126.67,73.13,126.67-73.13v-146.27l-126.67-73.13Zm92.62,199.74l-92.62,53.47-92.62-53.47v-106.95l92.62-53.47,92.62,53.47v106.95Zm-356.26-350.99l-126.67,73.13v146.27l126.67,73.13,126.67-73.13v-146.27l-126.67-73.13Zm92.62,199.74l-92.62,53.47-92.62-53.47v-106.95l92.62-53.47,92.62,53.47v106.95Z"/>
</svg>